<?xml version="1.0" encoding="utf-8"?>

<!-- License Agreement at http://iconmonstr.com/license/ -->

<!DOCTYPE svg PUBLIC "-//W3C//DTD SVG 1.1//EN" "http://www.w3.org/Graphics/SVG/1.1/DTD/svg11.dtd">
<svg version="1.1" xmlns="http://www.w3.org/2000/svg" xmlns:xlink="http://www.w3.org/1999/xlink" x="0px" y="0px"
	 width="512px" height="512px" viewBox="0 0 512 512" enable-background="new 0 0 512 512" xml:space="preserve">
<path id="note-30-icon" d="M279.037,150.636L173.511,256.162c-24.496,24.497-64.357,24.497-88.855,0
	c-24.496-24.498-24.496-64.359,0-88.854L188.31,63.654c18.205-18.205,47.828-18.207,66.033,0c18.208,18.205,18.208,47.829,0,66.036
	l-92.029,92.028c-11.855,11.855-31.145,11.855-43.002,0c-11.855-11.854-11.854-31.145,0.002-43.001l74.287-74.287l15.488,15.487
	l-74.287,74.289c-3.316,3.315-3.316,8.707,0,12.024c3.314,3.312,8.707,3.312,12.023,0l92.029-92.032
	c9.664-9.665,9.664-25.391,0-35.058c-9.666-9.665-25.393-9.665-35.057,0.002L100.146,182.797c-15.957,15.955-15.959,41.919,0,57.876
	c15.957,15.957,41.92,15.957,57.877,0l105.526-105.526L279.037,150.636z M369.08,225.942H247.724l-27.803,27.804H369.08V225.942z
	 M369.111,286.57H189.291v27.804h179.821V286.57z M280.471,193.195h88.609v-27.804h-60.805L280.471,193.195z M297.344,80.158
	c1.152,5.367,1.764,10.891,1.764,16.513c0,7.045-0.943,13.942-2.742,20.56h112.279c0,0,0,172.686,0,202.111
	c0,58.501-72.225,35.063-72.225,35.063s22.113,70.522-32.438,70.522c-29.715,0-44.547,0-154.225,0V303.351
	c-6.709,1.497-13.627,2.293-20.674,2.293c-5.559,0-11.035-0.506-16.398-1.443V462h191.862c63.176,0,141.17-82.55,141.17-139.457
	V80.158H297.344z"/>
</svg>
